<?xml version="1.0" encoding="UTF-8" standalone="no"?>
<!-- Created with Inkscape (http://www.inkscape.org/) -->
<svg xmlns:svg="http://www.w3.org/2000/svg" xmlns="http://www.w3.org/2000/svg" xmlns:xlink="http://www.w3.org/1999/xlink" version="1.0" width="800" height="1042.05" viewBox="0 0 800 964.966" id="Layer_1" xml:space="preserve"><defs id="defs318"/>

































































<g transform="matrix(1.16376, 0, 0, 1.16376, -65.9453, -119.468)" id="g2184"><g id="g3">
	<g id="g5">
		<g id="g7">
			<rect width="673.45398" height="673.44702" x="63.653999" y="76.527" id="rect9"/>
		</g>
	</g>
</g><g id="g11">
	<defs id="defs13">
		<rect width="673.45398" height="673.44702" x="63.653999" y="76.527" id="XMLID_1_"/>
	</defs>
	<clipPath id="XMLID_17_">
		<use id="use17" x="0" y="0" width="800" height="964.966" xlink:href="#XMLID_1_"/>
	</clipPath>
	<polyline id="polyline19" points="628.329,807.203 643.642,795.669 625.408,771.458 643.683,757.7 634.621,745.675 616.345,759.447 608.784,749.387 628.288,734.702 618.857,722.186 584.04,748.432 628.329,807.203" clip-path="url(#XMLID_17_)" style="fill: rgb(51, 51, 51);"/>
	<polyline id="polyline21" points="668.81,776.699 704.378,749.893 694.948,737.39 674.693,752.65 665.889,740.953 684.165,727.181 675.102,715.17 656.827,728.928 649.252,718.897 668.769,704.197 659.352,691.681 624.521,717.914 668.81,776.699" clip-path="url(#XMLID_17_)" style="fill: rgb(51, 51, 51);"/>
	<polyline id="polyline23" points="732.549,728.669 747.876,717.123 703.573,658.352 688.259,669.898 732.549,728.669" clip-path="url(#XMLID_17_)" style="fill: rgb(51, 51, 51);"/>
	<path d="M 761.075,641.605 C 751.589,629.021 741.749,627.792 728.414,637.838 C 715.489,647.556 714.056,658.843 722.981,670.703 C 738.677,691.531 758.373,667.645 767.121,679.261 C 769.537,682.468 769.592,686.304 766.466,688.665 C 763.491,690.89 760.079,690.63 756.284,685.621 L 755.233,684.201 L 740.424,695.38 L 741.98,697.441 C 751.152,709.616 761.511,708.647 774.205,699.092 C 787.689,688.91 790.802,677.801 781.37,665.285 C 765.183,643.802 744.437,668.342 735.688,656.727 C 733.709,654.106 733.272,650.421 736.548,647.951 C 739.51,645.713 743.085,647.542 745.693,650.995 L 746.757,652.4 L 761.075,641.605" style="fill: rgb(51, 51, 51);" clip-path="url(#XMLID_17_)" id="path25"/>
	<polyline id="polyline27" points="460.779,804.119 476.079,792.585 457.844,768.386 476.12,754.615 467.057,742.604 448.782,756.362 441.208,746.331 460.71,731.63 451.293,719.115 416.476,745.347 460.779,804.119" clip-path="url(#XMLID_17_)" style="fill: rgb(51, 51, 51);"/>
	<polyline id="polyline29" points="501.247,773.627 536.815,746.835 527.384,734.306 507.129,749.579 498.327,737.896 516.588,724.111 507.539,712.086 489.277,725.872 481.703,715.826 501.207,701.113 491.775,688.611 456.958,714.843 501.247,773.627" clip-path="url(#XMLID_17_)" style="fill: rgb(51, 51, 51);"/>
</g><polyline id="polyline31" points="565,725.584 580.299,714.065 536.01,655.281 520.682,666.828 565,725.584" style="fill: rgb(51, 51, 51);"/><path d="M 593.511,638.547 C 584.012,625.936 574.171,624.708 560.836,634.753 C 547.911,644.498 546.491,655.785 555.418,667.632 C 571.113,688.46 590.809,664.589 599.557,676.19 C 601.973,679.398 602.028,683.233 598.903,685.594 C 595.941,687.832 592.515,687.56 588.72,682.55 L 587.669,681.145 L 572.847,692.309 L 574.403,694.371 C 583.575,706.559 593.948,705.576 606.628,696.022 C 620.126,685.854 623.238,674.73 613.808,662.228 C 597.62,640.746 576.874,665.272 568.125,653.67 C 566.146,651.023 565.696,647.364 568.985,644.88 C 571.961,642.642 575.536,644.471 578.13,647.938 L 579.181,649.33 L 593.511,638.547" style="fill: rgb(51, 51, 51);" id="path33"/><polyline id="polyline35" points="632.915,674.417 648.214,662.883 629.98,638.67 648.269,624.913 639.207,612.888 620.931,626.66 613.37,616.615 632.874,601.915 623.443,589.399 588.612,615.645 632.915,674.417" style="fill: rgb(51, 51, 51);"/><g id="g37">
	<defs id="defs39">
		<rect width="673.45398" height="673.44702" x="63.653999" y="76.527" id="XMLID_3_"/>
	</defs>
	<clipPath id="XMLID_18_">
		<use id="use43" x="0" y="0" width="800" height="964.966" xlink:href="#XMLID_3_"/>
	</clipPath>
	<polyline id="polyline45" points="673.396,643.912 708.964,617.106 699.534,604.604 679.279,619.863 670.475,608.166 688.737,594.395 679.688,582.371 661.413,596.156 653.837,586.11 673.355,571.411 663.924,558.895 629.107,585.127 673.396,643.912" clip-path="url(#XMLID_18_)" style="fill: rgb(51, 51, 51);"/>
	<polyline id="polyline47" points="737.135,595.882 752.462,584.335 708.145,525.565 692.845,537.112 737.135,595.882" clip-path="url(#XMLID_18_)" style="fill: rgb(51, 51, 51);"/>
	<path d="M 765.661,508.818 C 756.161,496.234 746.335,494.993 732.986,505.051 C 720.075,514.769 718.628,526.056 727.567,537.916 C 743.263,558.744 762.945,534.873 771.707,546.474 C 774.123,549.682 774.178,553.517 771.038,555.878 C 768.077,558.103 764.651,557.844 760.87,552.834 L 759.819,551.415 L 745.01,562.593 L 746.552,564.655 C 755.738,576.829 766.097,575.86 778.777,566.306 C 792.275,556.124 795.387,545.014 785.956,532.512 C 769.769,511.015 749.023,535.556 740.274,523.941 C 738.282,521.32 737.844,517.635 741.134,515.165 C 744.096,512.927 747.671,514.756 750.279,518.209 L 751.343,519.614 L 765.661,508.818" style="fill: rgb(51, 51, 51);" clip-path="url(#XMLID_18_)" id="path49"/>
	<path d="M 292.452,736.067 C 282.952,723.469 273.112,722.241 259.777,732.286 C 246.852,742.031 245.419,753.306 254.345,765.152 C 270.041,785.979 289.749,762.108 298.484,773.71 C 300.9,776.931 300.955,780.753 297.829,783.113 C 294.867,785.351 291.441,785.092 287.661,780.07 L 286.61,778.677 L 271.788,789.842 L 273.344,791.889 C 282.516,804.077 292.889,803.108 305.569,793.554 C 319.067,783.386 322.179,772.262 312.735,759.746 C 296.561,738.264 275.802,762.79 267.067,751.188 C 265.088,748.554 264.638,744.896 267.927,742.399 C 270.903,740.174 274.465,742.003 277.072,745.469 L 278.123,746.862 L 292.452,736.067" style="fill: rgb(51, 51, 51);" clip-path="url(#XMLID_18_)" id="path51"/>
	<polyline id="polyline53" points="331.841,771.935 347.155,760.402 328.92,736.203 347.209,722.432 338.147,710.408 319.872,724.179 312.296,714.133 331.8,699.448 322.383,686.918 287.552,713.165 331.841,771.935" clip-path="url(#XMLID_18_)" style="fill: rgb(51, 51, 51);"/>
</g><polyline id="polyline55" points="372.336,741.43 407.891,714.638 398.473,702.123 378.219,717.381 369.416,705.685 387.677,691.927 378.628,679.903 360.339,693.674 352.778,683.628 372.295,668.929 362.851,656.427 328.047,682.66 372.336,741.43" style="fill: rgb(51, 51, 51);"/><polyline id="polyline57" points="436.075,693.401 451.375,681.855 407.085,623.083 391.772,634.63 436.075,693.401" style="fill: rgb(51, 51, 51);"/><path d="M 464.587,606.351 C 455.101,593.753 445.26,592.525 431.926,602.57 C 419,612.301 417.554,623.59 426.507,635.436 C 442.203,656.263 461.898,632.392 470.647,643.994 C 473.063,647.215 473.104,651.037 469.978,653.397 C 467.016,655.622 463.59,655.376 459.81,650.34 L 458.746,648.947 L 443.937,660.112 L 445.479,662.186 C 454.665,674.347 465.038,673.391 477.717,663.824 C 491.215,653.656 494.314,642.546 484.896,630.03 C 468.695,608.534 447.963,633.088 439.214,621.472 C 437.221,618.838 436.771,615.18 440.073,612.697 C 443.035,610.458 446.597,612.287 449.218,615.74 L 450.27,617.133 L 464.587,606.351" style="fill: rgb(51, 51, 51);" id="path59"/><polyline id="polyline61" points="504.004,642.219 519.304,630.672 501.07,606.473 519.345,592.703 510.296,580.706 492.007,594.462 484.446,584.417 503.95,569.718 494.532,557.203 459.714,583.435 504.004,642.219" style="fill: rgb(51, 51, 51);"/><polyline id="polyline63" points="544.472,611.714 580.041,584.922 570.609,572.407 550.355,587.666 541.551,575.983 559.827,562.211 550.764,550.187 532.502,563.958 524.927,553.913 544.431,539.213 535,526.698 500.182,552.944 544.472,611.714" style="fill: rgb(51, 51, 51);"/><polyline id="polyline65" points="608.224,563.685 623.538,552.153 579.235,493.381 563.935,504.901 608.224,563.685" style="fill: rgb(51, 51, 51);"/><path d="M 636.736,476.635 C 627.237,464.037 617.423,462.795 604.075,472.84 C 591.164,482.585 589.718,493.872 598.643,505.72 C 614.339,526.547 634.034,502.676 642.783,514.291 C 645.199,517.484 645.253,521.333 642.128,523.681 C 639.166,525.919 635.74,525.647 631.96,520.624 L 630.909,519.231 L 616.087,530.396 L 617.643,532.457 C 626.829,544.645 637.188,543.662 649.853,534.122 C 663.366,523.94 666.477,512.816 657.046,500.314 C 640.845,478.832 620.099,503.372 611.351,491.756 C 609.372,489.122 608.935,485.45 612.224,482.981 C 615.186,480.742 618.762,482.571 621.355,486.024 L 622.419,487.417 L 636.736,476.635" style="fill: rgb(51, 51, 51);" id="path67"/><g id="g69">
	<defs id="defs71">
		<rect width="673.45398" height="673.44702" x="63.653999" y="76.527" id="XMLID_5_"/>
	</defs>
	<clipPath id="XMLID_19_">
		<use id="use75" x="0" y="0" width="800" height="964.966" xlink:href="#XMLID_5_"/>
	</clipPath>
	<polyline id="polyline77" points="676.139,512.49 691.467,500.97 673.219,476.757 691.495,463 682.431,450.976 664.169,464.747 656.595,454.702 676.098,440.002 666.667,427.5 631.85,453.733 676.139,512.49" clip-path="url(#XMLID_19_)" style="fill: rgb(51, 51, 51);"/>
	<polyline id="polyline79" points="716.635,481.999 752.189,455.207 742.758,442.691 722.503,457.95 713.701,446.267 731.976,432.482 722.927,420.471 704.638,434.243 697.063,424.197 716.581,409.498 707.163,396.982 672.332,423.214 716.635,481.999" clip-path="url(#XMLID_19_)" style="fill: rgb(51, 51, 51);"/>
	<polyline id="polyline81" points="780.36,433.969 795.687,422.436 751.384,363.652 736.071,375.199 780.36,433.969" clip-path="url(#XMLID_19_)" style="fill: rgb(51, 51, 51);"/>
	<polyline id="polyline83" points="96.363,820.06 111.663,808.513 67.373,749.743 52.073,761.276 96.363,820.06" clip-path="url(#XMLID_19_)" style="fill: rgb(51, 51, 51);"/>
	<path d="M 124.888,732.996 C 115.382,720.412 105.541,719.156 92.206,729.216 C 79.294,738.947 77.855,750.235 86.788,762.081 C 102.484,782.909 122.172,759.038 130.921,770.652 C 133.343,773.846 133.398,777.695 130.266,780.043 C 127.304,782.281 123.878,782.022 120.091,776.999 L 119.047,775.594 L 104.232,786.772 L 105.768,788.819 C 114.954,801.007 125.319,800.025 137.999,790.485 C 151.491,780.302 154.616,769.193 145.185,756.677 C 128.984,735.194 108.238,759.734 99.49,748.119 C 97.511,745.498 97.074,741.813 100.357,739.343 C 103.325,737.105 106.901,738.934 109.502,742.387 L 110.56,743.792 L 124.888,732.996" style="fill: rgb(51, 51, 51);" clip-path="url(#XMLID_19_)" id="path85"/>
	<polyline id="polyline87" points="164.278,768.864 179.605,757.332 161.357,733.119 179.632,719.361 170.57,707.336 152.294,721.108 144.733,711.076 164.237,696.363 154.806,683.861 119.995,710.093 164.278,768.864" clip-path="url(#XMLID_19_)" style="fill: rgb(51, 51, 51);"/>
</g><polyline id="polyline89" points="204.773,738.36 240.328,711.568 230.896,699.051 210.642,714.311 201.839,702.627 220.114,688.842 211.065,676.845 192.776,690.603 185.201,680.558 204.719,665.859 195.301,653.342 160.47,679.576 204.773,738.36" style="fill: rgb(51, 51, 51);"/><polyline id="polyline91" points="268.498,690.331 283.826,678.797 239.536,620.027 224.208,631.56 268.498,690.331" style="fill: rgb(51, 51, 51);"/><path d="M 297.024,603.28 C 287.538,590.682 277.697,589.454 264.363,599.5 C 251.438,609.245 250.005,620.519 258.931,632.365 C 274.627,653.193 294.335,629.321 303.07,640.923 C 305.486,644.145 305.541,647.966 302.415,650.327 C 299.453,652.565 296.027,652.306 292.247,647.283 L 291.183,645.89 L 276.374,657.055 L 277.93,659.102 C 287.102,671.29 297.475,670.322 310.155,660.767 C 323.653,650.599 326.752,639.476 317.321,626.96 C 301.133,605.477 280.388,630.003 271.653,618.402 C 269.647,615.767 269.224,612.11 272.499,609.612 C 275.461,607.387 279.05,609.216 281.644,612.683 L 282.709,614.075 L 297.024,603.28" style="fill: rgb(51, 51, 51);" id="path93"/><polyline id="polyline95" points="336.441,639.148 351.741,627.615 333.506,603.417 351.768,589.645 342.719,577.621 324.444,591.392 316.882,581.36 336.386,566.647 326.955,554.131 292.138,580.377 336.441,639.148" style="fill: rgb(51, 51, 51);"/><polyline id="polyline97" points="376.922,608.644 412.477,581.852 403.059,569.335 382.805,584.595 373.988,572.898 392.263,559.14 383.201,547.116 364.925,560.887 357.364,550.842 376.881,536.143 367.437,523.64 332.633,549.873 376.922,608.644" style="fill: rgb(51, 51, 51);"/><polyline id="polyline99" points="440.661,560.615 455.961,549.068 411.671,490.297 396.358,501.844 440.661,560.615" style="fill: rgb(51, 51, 51);"/><path d="M 469.173,473.564 C 459.687,460.966 449.846,459.738 436.512,469.784 C 423.586,479.515 422.14,490.803 431.093,502.663 C 446.789,523.477 466.47,499.605 475.219,511.207 C 477.649,514.429 477.69,518.25 474.564,520.611 C 471.588,522.836 468.176,522.59 464.396,517.567 L 463.332,516.161 L 448.523,527.326 L 450.065,529.4 C 459.251,541.561 469.624,540.606 482.303,531.038 C 495.801,520.87 498.9,509.761 489.482,497.245 C 473.281,475.748 452.536,500.302 443.787,488.701 C 441.808,486.053 441.357,482.395 444.66,479.911 C 447.622,477.673 451.184,479.502 453.805,482.955 L 454.843,484.347 L 469.173,473.564" style="fill: rgb(51, 51, 51);" id="path101"/><polyline id="polyline103" points="508.59,509.432 523.89,497.885 505.656,473.687 523.931,459.916 514.869,447.918 496.593,461.676 489.032,451.63 508.536,436.931 499.104,424.416 464.287,450.648 508.59,509.432" style="fill: rgb(51, 51, 51);"/><polyline id="polyline105" points="549.058,478.928 584.626,452.136 575.195,439.62 554.94,454.879 546.137,443.182 564.413,429.424 555.35,417.4 537.088,431.171 529.513,421.14 549.017,406.427 539.585,393.911 504.768,420.157 549.058,478.928" style="fill: rgb(51, 51, 51);"/><polyline id="polyline107" points="612.81,430.899 628.11,419.366 583.821,360.595 568.507,372.115 612.81,430.899" style="fill: rgb(51, 51, 51);"/><path d="M 641.322,343.848 C 631.823,331.25 621.982,330.008 608.661,340.054 C 595.723,349.8 594.304,361.073 603.229,372.933 C 618.925,393.761 638.62,369.889 647.369,381.504 C 649.785,384.698 649.839,388.547 646.714,390.895 C 643.752,393.133 640.326,392.86 636.532,387.837 L 635.495,386.444 L 620.659,397.609 L 622.215,399.67 C 631.401,411.858 641.76,410.876 654.439,401.335 C 667.938,391.153 671.063,380.044 661.619,367.528 C 645.431,346.045 624.685,370.585 615.937,358.97 C 613.958,356.335 613.507,352.664 616.81,350.194 C 619.772,347.956 623.348,349.771 625.941,353.238 L 627.005,354.63 L 641.322,343.848" style="fill: rgb(51, 51, 51);" id="path109"/><g id="g111">
	<defs id="defs113">
		<rect width="673.45398" height="673.44702" x="63.653999" y="76.527" id="XMLID_7_"/>
	</defs>
	<clipPath id="XMLID_20_">
		<use id="use117" x="0" y="0" width="800" height="964.966" xlink:href="#XMLID_7_"/>
	</clipPath>
	<polyline id="polyline119" points="680.725,379.716 696.04,368.183 677.805,343.971 696.081,330.2 687.017,318.189 668.742,331.947 661.181,321.915 680.684,307.215 671.253,294.713 636.436,320.946 680.725,379.716" clip-path="url(#XMLID_20_)" style="fill: rgb(51, 51, 51);"/>
	<polyline id="polyline121" points="721.208,349.212 756.775,322.42 747.344,309.904 727.089,325.163 718.287,313.48 736.562,299.695 727.5,287.684 709.224,301.456 701.649,291.411 721.167,276.711 711.749,264.195 676.917,290.441 721.208,349.212" clip-path="url(#XMLID_20_)" style="fill: rgb(51, 51, 51);"/>
	<polyline id="polyline123" points="75.856,706.163 111.41,679.371 101.979,666.869 81.725,682.127 72.921,670.431 91.204,656.66 82.147,644.635 63.865,658.407 56.291,648.375 75.801,633.675 66.384,621.16 31.553,647.392 75.856,706.163" clip-path="url(#XMLID_20_)" style="fill: rgb(51, 51, 51);"/>
</g><polyline id="polyline125" points="139.587,658.147 154.901,646.6 110.605,587.83 95.298,599.376 139.587,658.147" style="fill: rgb(51, 51, 51);"/><path d="M 168.113,571.083 C 158.613,558.485 148.786,557.258 135.452,567.316 C 122.527,577.034 121.087,588.321 130.013,600.181 C 145.716,621.009 165.397,597.124 174.146,608.74 C 176.575,611.947 176.63,615.782 173.491,618.143 C 170.529,620.368 167.103,620.109 163.323,615.085 L 162.272,613.68 L 147.463,624.844 L 149.005,626.919 C 158.19,639.093 168.563,638.124 181.243,628.57 C 194.728,618.388 197.84,607.278 188.409,594.776 C 172.221,573.28 151.462,597.82 142.721,586.205 C 140.735,583.585 140.305,579.913 143.587,577.429 C 146.563,575.191 150.125,577.02 152.732,580.473 L 153.783,581.878 L 168.113,571.083" style="fill: rgb(51, 51, 51);" id="path127"/><polyline id="polyline129" points="207.517,606.965 222.83,595.418 204.596,571.219 222.857,557.448 213.809,545.423 195.533,559.208 187.958,549.15 207.476,534.45 198.031,521.948 163.227,548.18 207.517,606.965" style="fill: rgb(51, 51, 51);"/><polyline id="polyline131" points="247.998,576.447 283.553,549.655 274.135,537.153 253.881,552.398 245.063,540.715 263.353,526.944 254.29,514.933 236.015,528.691 228.454,518.645 247.957,503.959 238.526,491.43 203.695,517.676 247.998,576.447" style="fill: rgb(51, 51, 51);"/><polyline id="polyline133" points="311.737,528.431 327.05,516.884 282.761,458.114 267.447,469.647 311.737,528.431" style="fill: rgb(51, 51, 51);"/><path d="M 340.262,441.367 C 330.763,428.783 320.922,427.542 307.601,437.587 C 294.662,447.332 293.229,458.606 302.155,470.452 C 317.851,491.28 337.559,467.409 346.308,479.023 C 348.724,482.231 348.765,486.066 345.639,488.414 C 342.678,490.652 339.265,490.393 335.471,485.37 L 334.42,483.978 L 319.598,495.142 L 321.154,497.19 C 330.34,509.378 340.699,508.395 353.378,498.855 C 366.877,488.687 369.988,477.577 360.557,465.047 C 344.37,443.564 323.624,468.105 314.875,456.489 C 312.896,453.868 312.446,450.197 315.749,447.713 C 318.711,445.475 322.273,447.304 324.88,450.771 L 325.931,452.163 L 340.262,441.367" style="fill: rgb(51, 51, 51);" id="path135"/><polyline id="polyline137" points="379.666,477.236 394.979,465.703 376.731,441.503 395.02,427.732 385.958,415.708 367.682,429.479 360.121,419.448 379.611,404.734 370.194,392.232 335.362,418.464 379.666,477.236" style="fill: rgb(51, 51, 51);"/><polyline id="polyline139" points="420.147,446.745 455.715,419.953 446.285,407.423 426.03,422.682 417.226,411 435.489,397.228 426.439,385.204 408.164,398.988 400.589,388.929 420.106,374.23 410.675,361.728 375.858,387.96 420.147,446.745" style="fill: rgb(51, 51, 51);"/><polyline id="polyline141" points="483.886,398.702 499.2,387.168 454.911,328.384 439.583,339.931 483.886,398.702" style="fill: rgb(51, 51, 51);"/><path d="M 512.398,311.651 C 502.913,299.053 493.072,297.825 479.737,307.87 C 466.812,317.615 465.392,328.889 474.319,340.749 C 490.014,361.563 509.71,337.692 518.458,349.292 C 520.874,352.514 520.929,356.335 517.803,358.696 C 514.828,360.934 511.416,360.675 507.621,355.652 L 506.557,354.26 L 491.748,365.424 L 493.29,367.486 C 502.476,379.66 512.849,378.691 525.528,369.137 C 539.026,358.969 542.125,347.845 532.707,335.329 C 516.507,313.846 495.774,338.386 487.025,326.785 C 485.033,324.137 484.596,320.479 487.885,317.995 C 490.847,315.757 494.422,317.586 497.03,321.053 L 498.081,322.445 L 512.398,311.651" style="fill: rgb(51, 51, 51);" id="path143"/><polyline id="polyline145" points="551.815,347.52 567.115,335.987 548.88,311.788 567.156,298.016 558.107,286.005 539.818,299.763 532.256,289.718 551.774,275.032 542.343,262.503 507.512,288.749 551.815,347.52" style="fill: rgb(51, 51, 51);"/><polyline id="polyline147" points="592.283,317.029 627.865,290.223 618.419,277.707 598.179,292.98 589.362,281.27 607.637,267.512 598.575,255.487 580.313,269.272 572.738,259.227 592.242,244.514 582.811,232.012 547.994,258.245 592.283,317.029" style="fill: rgb(51, 51, 51);"/><polyline id="polyline149" points="656.036,268.986 671.349,257.453 627.045,198.682 611.746,210.215 656.036,268.986" style="fill: rgb(51, 51, 51);"/><g id="g151">
	<defs id="defs153">
		<rect width="673.45398" height="673.44702" x="63.653999" y="76.527" id="XMLID_9_"/>
	</defs>
	<clipPath id="XMLID_21_">
		<use id="use157" x="0" y="0" width="800" height="964.966" xlink:href="#XMLID_9_"/>
	</clipPath>
	<path d="M 684.561,181.936 C 675.075,169.338 665.235,168.11 651.886,178.155 C 638.974,187.886 637.528,199.16 646.453,211.034 C 662.149,231.862 681.844,207.977 690.593,219.592 C 693.009,222.8 693.064,226.634 689.938,228.996 C 686.977,231.221 683.551,230.961 679.77,225.939 L 678.719,224.533 L 663.897,235.697 L 665.453,237.758 C 674.639,249.946 684.998,248.977 697.678,239.423 C 711.176,229.241 714.288,218.131 704.857,205.616 C 688.657,184.133 667.911,208.673 659.162,197.058 C 657.183,194.424 656.746,190.752 660.036,188.282 C 662.997,186.044 666.573,187.873 669.167,191.326 L 670.231,192.718 L 684.561,181.936" style="fill: rgb(51, 51, 51);" clip-path="url(#XMLID_21_)" id="path159"/>
	<polyline id="polyline161" points="723.964,217.804 739.278,206.271 721.043,182.072 739.305,168.287 730.243,156.276 711.981,170.047 704.406,160.002 723.91,145.303 714.478,132.787 679.661,159.033 723.964,217.804" clip-path="url(#XMLID_21_)" style="fill: rgb(51, 51, 51);"/>
	<polyline id="polyline163" points="764.446,187.299 800,160.507 790.569,148.005 770.315,163.25 761.511,151.567 779.787,137.796 770.738,125.771 752.462,139.543 744.901,129.498 764.405,114.812 754.973,102.282 720.142,128.529 764.446,187.299" clip-path="url(#XMLID_21_)" style="fill: rgb(51, 51, 51);"/>
	<polyline id="polyline165" points="80.428,573.375 115.996,546.583 106.565,534.082 86.311,549.34 77.507,537.644 95.776,523.873 86.72,511.848 68.451,525.62 60.876,515.587 80.387,500.888 70.949,488.373 36.139,514.605 80.428,573.375" clip-path="url(#XMLID_21_)" style="fill: rgb(51, 51, 51);"/>
</g><polyline id="polyline167" points="144.173,525.36 159.487,513.828 115.184,455.042 99.884,466.589 144.173,525.36" style="fill: rgb(51, 51, 51);"/><path d="M 172.686,438.296 C 163.2,425.698 153.373,424.47 140.039,434.528 C 127.107,444.246 125.667,455.534 134.6,467.394 C 150.289,488.221 169.984,464.336 178.733,475.952 C 181.149,479.159 181.217,482.995 178.078,485.355 C 175.116,487.593 171.69,487.321 167.91,482.312 L 166.859,480.892 L 152.037,492.057 L 153.593,494.131 C 162.779,506.306 173.138,505.336 185.804,495.782 C 199.316,485.614 202.428,474.49 192.997,461.988 C 176.796,440.492 156.05,465.032 147.302,453.417 C 145.323,450.797 144.886,447.125 148.175,444.642 C 151.137,442.404 154.713,444.232 157.306,447.685 L 158.371,449.091 L 172.686,438.296" style="fill: rgb(51, 51, 51);" id="path169"/><polyline id="polyline171" points="212.103,474.178 227.416,462.631 209.182,438.433 227.443,424.662 218.381,412.637 200.119,426.421 192.544,416.363 212.062,401.664 202.617,389.162 167.813,415.394 212.103,474.178" style="fill: rgb(51, 51, 51);"/><polyline id="polyline173" points="252.584,443.66 288.139,416.868 278.708,404.366 258.453,419.611 249.649,407.928 267.925,394.157 258.876,382.146 240.587,395.904 233.039,385.858 252.529,371.172 243.112,358.657 208.281,384.889 252.584,443.66" style="fill: rgb(51, 51, 51);"/><polyline id="polyline175" points="316.323,395.644 331.636,384.098 287.333,325.327 272.033,336.86 316.323,395.644" style="fill: rgb(51, 51, 51);"/><path d="M 344.848,308.58 C 335.348,295.996 325.508,294.754 312.174,304.8 C 299.249,314.545 297.816,325.819 306.742,337.666 C 322.438,358.493 342.146,334.622 350.881,346.237 C 353.297,349.444 353.351,353.279 350.226,355.627 C 347.265,357.865 343.839,357.606 340.058,352.584 L 338.994,351.191 L 324.185,362.356 L 325.741,364.403 C 334.927,376.591 345.286,375.608 357.965,366.068 C 371.464,355.9 374.575,344.776 365.131,332.26 C 348.958,310.778 328.212,335.318 319.463,323.702 C 317.484,321.082 317.034,317.397 320.323,314.926 C 323.299,312.688 326.861,314.53 329.468,317.969 L 330.519,319.375 L 344.848,308.58" style="fill: rgb(51, 51, 51);" id="path177"/><polyline id="polyline179" points="384.238,344.449 399.565,332.916 381.317,308.717 399.606,294.945 390.53,282.921 372.268,296.692 364.693,286.661 384.197,271.948 374.779,259.445 339.948,285.678 384.238,344.449" style="fill: rgb(51, 51, 51);"/><polyline id="polyline181" points="424.733,313.958 460.288,287.166 450.871,274.636 430.616,289.896 421.798,278.212 440.074,264.441 431.011,252.417 412.736,266.202 405.175,256.143 424.692,241.443 415.248,228.941 380.444,255.173 424.733,313.958" style="fill: rgb(51, 51, 51);"/><polyline id="polyline183" points="488.472,265.915 503.772,254.382 459.483,195.598 444.168,207.144 488.472,265.915" style="fill: rgb(51, 51, 51);"/><path d="M 516.984,178.878 C 507.499,166.267 497.658,165.039 484.323,175.084 C 471.398,184.829 469.965,196.103 478.905,207.964 C 494.6,228.778 514.296,204.906 523.044,216.508 C 525.46,219.729 525.515,223.55 522.362,225.912 C 519.414,228.15 515.988,227.891 512.207,222.868 L 511.143,221.476 L 496.334,232.641 L 497.876,234.688 C 507.062,246.876 517.435,245.907 530.114,236.353 C 543.612,226.185 546.711,215.061 537.293,202.545 C 521.093,181.063 500.36,205.589 491.611,194.001 C 489.619,191.354 489.169,187.695 492.471,185.198 C 495.433,182.987 498.994,184.802 501.616,188.269 L 502.667,189.662 L 516.984,178.878" style="fill: rgb(51, 51, 51);" id="path185"/><polyline id="polyline187" points="556.401,214.733 571.701,203.2 553.466,179.001 571.742,165.229 562.693,153.219 544.404,166.977 536.842,156.931 556.36,142.246 546.929,129.716 512.097,155.962 556.401,214.733" style="fill: rgb(51, 51, 51);"/><g id="g189">
	<defs id="defs191">
		<rect width="673.45398" height="673.44702" x="63.653999" y="76.527" id="XMLID_11_"/>
	</defs>
	<clipPath id="XMLID_22_">
		<use id="use195" x="0" y="0" width="800" height="964.966" xlink:href="#XMLID_11_"/>
	</clipPath>
	<polyline id="polyline197" points="596.869,184.242 632.437,157.436 623.005,144.92 602.751,160.193 593.948,148.483 612.223,134.725 603.161,122.701 584.899,136.486 577.324,126.44 596.828,111.727 587.397,99.225 552.58,125.458 596.869,184.242" clip-path="url(#XMLID_22_)" style="fill: rgb(51, 51, 51);"/>
	<polyline id="polyline199" points="660.622,136.199 675.921,124.652 631.631,65.896 616.332,77.428 660.622,136.199" clip-path="url(#XMLID_22_)" style="fill: rgb(51, 51, 51);"/>
	<path d="M 689.133,49.148 C 679.633,36.55 669.82,35.322 656.472,45.367 C 643.546,55.098 642.114,66.372 651.039,78.246 C 666.735,99.074 686.43,75.203 695.179,86.79 C 697.595,90.011 697.65,93.846 694.524,96.207 C 691.562,98.418 688.136,98.172 684.356,93.149 L 683.305,91.743 L 668.469,102.908 L 670.025,104.983 C 679.211,117.157 689.57,116.189 702.25,106.634 C 715.748,96.452 718.874,85.342 709.442,72.84 C 693.241,51.344 672.496,75.884 663.747,64.269 C 661.768,61.635 661.331,57.977 664.621,55.493 C 667.582,53.255 671.158,55.083 673.752,58.536 L 674.816,59.929 L 689.133,49.148" style="fill: rgb(51, 51, 51);" clip-path="url(#XMLID_22_)" id="path201"/>
	<polyline id="polyline203" points="728.537,85.017 743.864,73.484 725.602,49.285 743.891,35.5 734.829,23.489 716.567,37.261 708.992,27.215 728.496,12.516 719.064,0 684.247,26.246 728.537,85.017" clip-path="url(#XMLID_22_)" style="fill: rgb(51, 51, 51);"/>
	<path d="M 43.782,406.113 C 34.276,393.515 24.455,392.273 11.107,402.319 C -1.811,412.064 -3.245,423.338 5.682,435.198 C 21.378,456.026 41.073,432.154 49.822,443.756 C 52.238,446.964 52.292,450.813 49.167,453.16 C 46.198,455.385 42.779,455.125 38.992,450.102 L 37.941,448.71 L 23.126,459.874 L 24.682,461.935 C 33.847,474.123 44.22,473.141 56.892,463.6 C 70.391,453.418 73.509,442.295 64.078,429.78 C 47.877,408.31 27.138,432.85 18.39,421.236 C 16.404,418.601 15.974,414.93 19.257,412.46 C 22.218,410.222 25.795,412.051 28.395,415.504 L 29.459,416.896 L 43.782,406.113" style="fill: rgb(51, 51, 51);" clip-path="url(#XMLID_22_)" id="path205"/>
	<polyline id="polyline207" points="83.178,441.967 98.499,430.448 80.257,406.236 98.526,392.464 89.47,380.454 71.188,394.211 63.626,384.179 83.137,369.48 73.706,356.964 38.889,383.21 83.178,441.967" clip-path="url(#XMLID_22_)" style="fill: rgb(51, 51, 51);"/>
</g><polyline id="polyline209" points="123.667,411.477 159.228,384.671 149.797,372.168 129.556,387.428 120.732,375.745 139.014,361.959 129.958,349.935 111.676,363.72 104.102,353.675 123.612,338.976 114.194,326.46 79.363,352.707 123.667,411.477" style="fill: rgb(51, 51, 51);"/><polyline id="polyline211" points="187.398,363.448 202.712,351.915 158.423,293.13 143.109,304.677 187.398,363.448" style="fill: rgb(51, 51, 51);"/><path d="M 215.924,276.397 C 206.439,263.786 196.598,262.557 183.263,272.616 C 170.338,282.347 168.891,293.635 177.831,305.482 C 193.527,326.31 213.208,302.439 221.97,314.04 C 224.386,317.248 224.441,321.083 221.302,323.444 C 218.34,325.683 214.914,325.409 211.147,320.401 L 210.083,318.995 L 195.274,330.16 L 196.816,332.221 C 206.002,344.409 216.361,343.426 229.054,333.886 C 242.553,323.704 245.651,312.58 236.22,300.078 C 220.033,278.595 199.287,303.121 190.552,291.52 C 188.546,288.872 188.109,285.214 191.398,282.73 C 194.374,280.505 197.936,282.32 200.543,285.787 L 201.607,287.193 L 215.924,276.397" style="fill: rgb(51, 51, 51);" id="path213"/><polyline id="polyline215" points="255.341,312.265 270.641,300.732 252.407,276.52 270.668,262.762 261.619,250.738 243.344,264.509 235.769,254.45 255.287,239.764 245.855,227.249 211.038,253.495 255.341,312.265" style="fill: rgb(51, 51, 51);"/><polyline id="polyline217" points="295.809,281.761 331.363,254.955 321.946,242.453 301.691,257.712 292.875,246.015 311.164,232.244 302.101,220.233 283.826,233.991 276.264,223.959 295.768,209.26 286.337,196.744 251.506,222.977 295.809,281.761" style="fill: rgb(51, 51, 51);"/><polyline id="polyline219" points="359.562,233.731 374.861,222.185 330.572,163.414 315.258,174.961 359.562,233.731" style="fill: rgb(51, 51, 51);"/><path d="M 388.073,146.667 C 378.574,134.083 368.747,132.854 355.412,142.9 C 342.473,152.631 341.04,163.919 349.98,175.766 C 365.676,196.594 385.371,172.709 394.12,184.324 C 396.536,187.545 396.577,191.367 393.465,193.728 C 390.489,195.953 387.077,195.707 383.297,190.685 L 382.233,189.266 L 367.41,200.444 L 368.966,202.505 C 378.152,214.679 388.525,213.71 401.191,204.156 C 414.689,193.988 417.8,182.864 408.383,170.362 C 392.182,148.865 371.436,173.405 362.688,161.804 C 360.709,159.17 360.258,155.485 363.562,153.014 C 366.523,150.776 370.086,152.604 372.693,156.057 L 373.744,157.463 L 388.073,146.667" style="fill: rgb(51, 51, 51);" id="path221"/><polyline id="polyline223" points="427.477,182.549 442.791,171.003 424.542,146.818 442.832,133.033 433.769,121.008 415.493,134.793 407.932,124.748 427.422,110.035 418.004,97.533 383.173,123.765 427.477,182.549" style="fill: rgb(51, 51, 51);"/><g id="g225">
	<defs id="defs227">
		<rect width="673.45398" height="673.44702" x="63.653999" y="76.527" id="XMLID_13_"/>
	</defs>
	<clipPath id="XMLID_23_">
		<use id="use231" x="0" y="0" width="800" height="964.966" xlink:href="#XMLID_13_"/>
	</clipPath>
	<polyline id="polyline233" points="467.958,152.045 503.526,125.253 494.095,112.737 473.84,127.982 465.038,116.299 483.299,102.542 474.25,90.517 455.975,104.289 448.4,94.244 467.917,79.544 458.486,67.028 423.668,93.274 467.958,152.045" clip-path="url(#XMLID_23_)" style="fill: rgb(51, 51, 51);"/>
	<polyline id="polyline235" points="531.697,104.016 547.01,92.469 502.721,33.698 487.394,45.231 531.697,104.016" clip-path="url(#XMLID_23_)" style="fill: rgb(51, 51, 51);"/>
	<path d="M 560.208,16.965 C 550.723,4.367 540.882,3.125 527.547,13.171 C 514.636,22.916 513.203,34.19 522.129,46.037 C 537.824,66.865 557.52,42.994 566.269,54.608 C 568.684,57.816 568.739,61.651 565.614,63.998 C 562.652,66.237 559.226,65.977 555.432,60.955 L 554.38,59.563 L 539.558,70.728 L 541.115,72.775 C 550.287,84.963 560.659,83.994 573.339,74.44 C 586.838,64.272 589.949,53.148 580.519,40.632 C 564.318,19.149 543.585,43.689 534.837,32.088 C 532.844,29.454 532.407,25.782 535.696,23.298 C 538.658,21.073 542.248,22.902 544.841,26.355 L 545.905,27.747 L 560.208,16.965" style="fill: rgb(51, 51, 51);" clip-path="url(#XMLID_23_)" id="path237"/>
	<path d="M 48.354,273.326 C 38.861,260.728 29.021,259.486 15.693,269.532 C 2.775,279.277 1.335,290.551 10.268,302.411 C 25.964,323.239 45.659,299.354 54.408,310.969 C 56.824,314.177 56.878,318.025 53.746,320.373 C 50.784,322.598 47.358,322.352 43.571,317.316 L 42.527,315.924 L 27.698,327.089 L 29.247,329.15 C 38.432,341.338 48.798,340.356 61.478,330.802 C 74.977,320.634 78.082,309.524 68.657,296.994 C 52.463,275.525 31.724,300.065 22.975,288.45 C 20.989,285.816 20.552,282.144 23.842,279.674 C 26.803,277.435 30.38,279.264 32.98,282.717 L 34.044,284.109 L 48.354,273.326" style="fill: rgb(51, 51, 51);" clip-path="url(#XMLID_23_)" id="path239"/>
	<polyline id="polyline241" points="87.764,309.181 103.071,297.662 84.843,273.449 103.112,259.677 94.056,247.667 75.774,261.424 68.212,251.393 87.723,236.693 78.292,224.178 43.475,250.41 87.764,309.181" clip-path="url(#XMLID_23_)" style="fill: rgb(51, 51, 51);"/>
</g><polyline id="polyline243" points="128.239,278.69 163.814,251.898 154.369,239.382 134.122,254.641 125.318,242.958 143.6,229.173 134.531,217.162 116.262,230.934 108.688,220.888 128.198,206.189 118.78,193.673 83.949,219.919 128.239,278.69" style="fill: rgb(51, 51, 51);"/><polyline id="polyline245" points="191.984,230.661 207.298,219.127 162.995,160.357 147.695,171.89 191.984,230.661" style="fill: rgb(51, 51, 51);"/><path d="M 220.51,143.61 C 211.024,130.999 201.184,129.77 187.836,139.829 C 174.924,149.56 173.478,160.848 182.418,172.695 C 198.114,193.523 217.795,169.652 226.543,181.253 C 228.973,184.461 229.027,188.295 225.888,190.657 C 222.927,192.895 219.501,192.622 215.72,187.614 L 214.669,186.208 L 199.86,197.372 L 201.402,199.433 C 210.588,211.621 220.947,210.639 233.626,201.099 C 247.125,190.917 250.236,179.793 240.805,167.291 C 224.618,145.808 203.859,170.334 195.11,158.733 C 193.131,156.099 192.694,152.427 195.984,149.943 C 198.946,147.718 202.522,149.534 205.129,153.001 L 206.18,154.407 L 220.51,143.61" style="fill: rgb(51, 51, 51);" id="path247"/><g id="g249">
	<defs id="defs251">
		<rect width="673.45398" height="673.44702" x="63.653999" y="76.527" id="XMLID_15_"/>
	</defs>
	<clipPath id="XMLID_24_">
		<use id="use255" x="0" y="0" width="800" height="964.966" xlink:href="#XMLID_15_"/>
	</clipPath>
	<polyline id="polyline257" points="259.913,179.479 275.227,167.946 256.993,143.733 275.254,129.975 266.191,117.951 247.93,131.722 240.355,121.664 259.873,106.978 250.428,94.462 215.624,120.708 259.913,179.479" clip-path="url(#XMLID_24_)" style="fill: rgb(51, 51, 51);"/>
	<polyline id="polyline259" points="300.395,148.974 335.949,122.168 326.532,109.667 306.277,124.925 297.46,113.229 315.75,99.457 306.687,87.446 288.412,101.204 280.85,91.172 300.354,76.473 290.923,63.957 256.092,90.19 300.395,148.974" clip-path="url(#XMLID_24_)" style="fill: rgb(51, 51, 51);"/>
	<polyline id="polyline261" points="364.134,100.945 379.447,89.412 335.158,30.627 319.844,42.174 364.134,100.945" clip-path="url(#XMLID_24_)" style="fill: rgb(51, 51, 51);"/>
	<path d="M 392.659,13.881 C 383.16,1.297 373.32,0.068 359.998,10.114 C 347.059,19.832 345.626,31.133 354.552,42.98 C 370.248,63.808 389.956,39.937 398.705,51.538 C 401.121,54.746 401.162,58.58 398.036,60.942 C 395.074,63.167 391.648,62.907 387.868,57.899 L 386.817,56.48 L 371.994,67.658 L 373.55,69.719 C 382.736,81.894 393.095,80.925 405.775,71.371 C 419.273,61.203 422.384,50.079 412.94,37.577 C 396.766,16.08 376.021,40.62 367.272,29.019 C 365.293,26.385 364.842,22.7 368.146,20.229 C 371.107,17.991 374.67,19.833 377.277,23.273 L 378.328,24.679 L 392.659,13.881" style="fill: rgb(51, 51, 51);" clip-path="url(#XMLID_24_)" id="path263"/>
	<polyline id="polyline265" points="63.067,198.464 78.388,186.917 34.084,128.146 18.777,139.693 63.067,198.464" clip-path="url(#XMLID_24_)" style="fill: rgb(51, 51, 51);"/>
	<path d="M 91.592,111.413 C 82.093,98.816 72.266,97.587 58.931,107.633 C 46.006,117.364 44.566,128.638 53.492,140.512 C 69.188,161.34 88.883,137.454 97.631,149.056 C 100.047,152.277 100.102,156.098 96.976,158.473 C 94.014,160.684 90.588,160.438 86.801,155.415 L 85.75,154.009 L 70.935,165.174 L 72.491,167.249 C 81.67,179.423 92.029,178.455 104.702,168.887 C 118.207,158.719 121.319,147.609 111.888,135.093 C 95.687,113.611 74.949,138.151 66.2,126.535 C 64.214,123.901 63.784,120.243 67.067,117.759 C 70.029,115.521 73.611,117.35 76.205,120.802 L 77.27,122.195 L 91.592,111.413" style="fill: rgb(51, 51, 51);" clip-path="url(#XMLID_24_)" id="path267"/>
	<polyline id="polyline269" points="130.996,147.282 146.316,135.749 128.075,111.55 146.344,97.765 137.281,85.754 119.019,99.525 111.438,89.48 130.948,74.781 121.517,62.265 86.7,88.498 130.996,147.282" clip-path="url(#XMLID_24_)" style="fill: rgb(51, 51, 51);"/>
	<polyline id="polyline271" points="171.484,116.777 207.039,89.985 197.607,77.483 177.353,92.729 168.55,81.045 186.825,67.274 177.776,55.25 159.487,69.021 151.926,58.989 171.43,44.29 162.012,31.76 127.181,58.006 171.484,116.777" clip-path="url(#XMLID_24_)" style="fill: rgb(51, 51, 51);"/>
</g><g id="g273">
	<g id="g275">
		<g id="g277">
			
				<rect width="673.45398" height="673.44702" x="63.653999" y="76.527" style="fill: none; stroke: black; stroke-width: 13.9761; stroke-miterlimit: 3.864;" id="rect279"/>
			<path d="M 110.182,309.891 L 110.182,243.45 L 117.744,243.45 C 142.721,243.45 162.545,238.332 177.245,228.027 C 191.931,217.75 200.448,205.698 202.754,191.831 L 292.152,191.831 L 292.152,650.832 L 186.375,650.832 L 186.375,309.891 L 110.182,309.891" style="fill: white;" id="path281"/>
			<path d="M 307.342,650.832 L 307.342,590.383 C 307.342,574.018 308.816,559.332 311.751,546.325 C 314.904,533.304 319.708,520.597 326.246,508.218 C 332.743,495.853 342.597,480.935 355.823,463.506 C 360.655,457.228 375.545,439.279 400.536,409.69 C 435.367,368.553 455.73,342.211 461.613,330.665 C 467.7,318.914 470.73,305.811 470.744,291.316 C 470.744,277.462 468.001,267.499 462.555,261.398 C 457.3,255.325 450.285,252.294 441.454,252.281 C 433.483,252.281 426.986,255.12 421.936,260.771 C 417.119,266.244 414.689,275.156 414.689,287.536 L 414.689,355.219 L 307.97,355.219 L 307.97,290.361 C 307.97,273.15 311.533,256.581 318.684,240.626 C 325.809,224.671 339.239,210.94 358.975,199.394 C 378.902,187.847 405.462,182.074 438.628,182.074 C 486.48,182.074 521.952,192.788 545.032,214.176 C 568.111,235.386 579.658,265.085 579.672,303.274 C 579.672,323.638 576.506,342.841 570.228,360.884 C 565.382,374.328 557.098,389.123 545.346,405.27 C 536.939,416.612 518.363,438.654 489.619,471.397 C 460.875,504.358 442.3,528.161 433.891,542.861 C 425.497,557.56 420.679,570.663 419.424,582.21 L 579.043,582.21 L 579.043,650.835 L 307.342,650.835" style="fill: white;" id="path283"/>
			<polyline id="polyline285" points="617.192,506.73 617.192,446.553 557.029,446.553 557.029,417.045 617.192,417.045 617.192,356.869 646.713,356.869 646.713,417.045 706.863,417.045 706.863,446.553 646.713,446.553 646.713,506.73 617.192,506.73" style="fill: white;"/>
			<rect width="673.45398" height="168.382" x="63.653999" y="789.59601" id="rect287"/>
			
				<rect width="673.45398" height="168.382" x="63.653999" y="789.59601" style="fill: none; stroke: black; stroke-width: 13.9761; stroke-miterlimit: 3.864;" id="rect289"/>
			<polyline id="polyline291" points="105.022,908.434 116.46,908.434 126.956,857.826 127.195,857.826 138.148,908.434 148.882,908.434 163.691,846.484 153.441,846.484 143.75,897.12 143.519,897.12 133.146,846.484 121.585,846.484 110.967,897.12 110.741,897.12 100.71,846.484 90.446,846.484 105.022,908.434" style="fill: white;"/>
			<polyline id="polyline293" points="180.643,908.434 192.066,908.434 202.562,857.826 202.808,857.826 213.754,908.434 224.495,908.434 239.304,846.484 229.054,846.484 219.363,897.12 219.131,897.12 208.745,846.484 197.198,846.484 186.593,897.12 186.348,897.12 176.316,846.484 166.066,846.484 180.643,908.434" style="fill: white;"/>
			<polyline id="polyline295" points="256.242,908.434 267.679,908.434 278.175,857.826 278.407,857.826 289.367,908.434 300.108,908.434 314.917,846.484 304.667,846.484 294.977,897.12 294.745,897.12 284.372,846.484 272.811,846.484 262.206,897.12 261.96,897.12 251.929,846.484 241.651,846.484 256.242,908.434" style="fill: white;"/>
			<rect width="10.728" height="12.256" x="320.431" y="896.17798" style="fill: white;" id="rect297"/>
			<path d="M 346.213,928.785 L 356.013,928.785 L 356.013,901.391 L 356.231,901.391 C 358.456,906.701 363.71,910.058 369.307,910.058 C 385.508,910.058 389.725,890.405 389.725,876.305 C 389.725,857.934 384.115,844.859 369.307,844.859 C 362.537,844.859 357.064,849.486 355.767,854.113 L 355.535,854.113 L 355.535,846.484 L 346.213,846.484 L 346.213,928.785 M 355.426,877.465 C 355.426,863.353 357.173,853.198 368.024,853.198 C 377.128,853.198 379.462,862.67 379.462,876.304 C 379.462,892.259 377.128,901.732 368.024,901.732 C 357.514,901.733 355.426,889.49 355.426,877.465 z " style="fill: white; fill-rule: evenodd;" id="path299"/>
			<path d="M 441.302,878.612 L 441.302,874.681 C 441.302,861.401 439.555,844.859 420.42,844.859 C 401.162,844.859 398.132,862.78 398.132,878.271 C 398.132,899.536 404.547,910.058 419.833,910.058 C 436.866,910.058 440.824,894.69 440.824,888.098 L 431.038,888.098 C 431.038,892.711 429.742,902.429 420.42,902.429 C 408.409,902.429 408.409,888.098 408.409,878.612 L 441.302,878.612 M 408.75,870.983 L 408.75,868.676 C 408.75,864.977 409.91,852.488 420.188,852.488 C 428.828,852.488 431.039,860.691 431.039,867.638 L 431.039,870.982 L 408.75,870.982 L 408.75,870.983 z " style="fill: white; fill-rule: evenodd;" id="path301"/>
			<path d="M 493.195,846.484 L 483.873,846.484 L 483.873,854.345 L 483.641,854.345 C 482.359,849.486 476.871,844.859 470.116,844.859 C 454.243,844.859 449.698,860.692 449.698,877.465 C 449.698,885.668 450.858,908.434 469.065,908.434 C 475.234,908.434 481.062,905.323 483.177,900.122 L 483.396,900.122 L 483.396,908.202 C 483.396,912.473 483.874,922.082 471.276,922.082 C 466.144,922.082 461.709,919.885 461.23,914.221 L 451.445,914.221 C 453.069,929.712 468.123,929.712 471.972,929.712 C 484.57,929.712 493.196,922.997 493.196,904.517 L 493.196,846.484 M 471.398,853.199 C 481.893,853.199 483.982,865.441 483.982,877.466 C 483.982,890.173 481.893,900.123 471.275,900.123 C 461.475,900.123 459.961,887.525 459.961,877.466 C 459.96,862.67 462.281,853.199 471.398,853.199 z " style="fill: white; fill-rule: evenodd;" id="path303"/>
			<path d="M 506.638,837.011 L 516.438,837.011 L 516.438,825.915 L 506.638,825.915 L 506.638,837.011 z M 506.638,908.434 L 516.438,908.434 L 516.438,846.484 L 506.638,846.484 L 506.638,908.434 z " style="fill: white; fill-rule: evenodd;" id="path305"/>
			<rect width="10.728" height="12.256" x="532.052" y="896.17798" style="fill: white;" id="rect307"/>
			<path d="M 558.42,837.011 L 568.22,837.011 L 568.22,825.915 L 558.42,825.915 L 558.42,837.011 z M 558.42,908.434 L 568.22,908.434 L 568.22,846.484 L 558.42,846.484 L 558.42,908.434 z " style="fill: white; fill-rule: evenodd;" id="path309"/>
			<path d="M 581.624,908.434 L 591.424,908.434 L 591.424,865.673 C 591.424,856.652 598.534,853.198 603.789,853.198 C 612.647,853.198 613.002,860.936 613.002,865.673 L 613.002,908.434 L 622.802,908.434 L 622.802,864.513 C 622.802,857.225 622.802,844.859 606.356,844.859 C 600.282,844.859 593.758,848.108 591.192,853.772 L 590.96,853.772 L 590.96,846.484 L 581.625,846.484 L 581.625,908.434" style="fill: white;" id="path311"/>
			<path d="M 638.565,908.434 L 648.365,908.434 L 648.365,854.113 L 659.106,854.113 L 659.106,846.484 L 648.365,846.484 L 648.365,839.209 C 648.365,834.924 650.467,833.3 654.671,833.3 L 659.216,833.3 L 659.216,824.987 L 652.105,824.987 C 642.647,824.987 638.566,829.833 638.566,839.209 L 638.566,846.484 L 629.462,846.484 L 629.462,854.113 L 638.566,854.113 L 638.566,908.434" style="fill: white;" id="path313"/>
			<path d="M 685.107,902.429 C 675.075,902.429 673.083,890.868 673.083,877.465 C 673.083,864.049 675.198,852.488 685.107,852.488 C 695.602,852.488 697.582,864.049 697.582,877.465 C 697.582,890.869 695.494,902.429 685.107,902.429 M 662.833,877.465 C 662.833,894.908 667.255,910.058 685.339,910.058 C 703.301,910.058 707.86,894.909 707.86,877.465 C 707.86,860.009 703.411,844.859 685.339,844.859 C 667.364,844.859 662.833,860.009 662.833,877.465 z " style="fill: white; fill-rule: evenodd;" id="path315"/>
		</g>
	</g>
</g></g>
</svg>